<svg width="150" height="150" viewBox="0 0 150 150" fill="none" xmlns="http://www.w3.org/2000/svg">
<path fill-rule="evenodd" clip-rule="evenodd" d="M84.3398 7.382C114.265 7.382 138.532 31.8215 138.532 61.9573C138.532 92.0948 114.265 116.534 84.3398 116.534C54.4146 116.534 30.1475 92.0948 30.1475 61.9573C30.1475 31.8215 54.4146 7.382 84.3398 7.382Z" fill="#E77600"/>
<path fill-rule="evenodd" clip-rule="evenodd" d="M84.3397 11.2103C110.034 11.2103 130.874 32.0495 130.874 57.7442C130.874 83.4388 110.034 104.278 84.3397 104.278C58.6451 104.278 37.8059 83.4388 37.8059 57.7442C37.8059 32.0495 58.6451 11.2103 84.3397 11.2103Z" fill="white"/>
<path fill-rule="evenodd" clip-rule="evenodd" d="M96.9406 149.381C94.0558 149.703 91.1223 149.875 88.1488 149.875C45.5878 149.875 11.0718 115.876 11.0718 73.9507C11.0718 37.967 36.4967 7.82425 70.6105 0.000427246L71.0892 2.71458C42.858 10.2999 22.1983 34.6209 22.1983 63.4476C22.1983 98.3379 52.4646 126.632 89.7853 126.632C90.8351 126.632 91.8796 126.606 92.919 126.562L96.9406 149.381Z" fill="#8198B2"/>
<path fill-rule="evenodd" clip-rule="evenodd" d="M101.38 83.7452C98.4781 84.9064 95.165 85.4879 91.4411 85.4879C84.1569 85.4879 78.1629 82.9966 73.4728 78.0244C68.7827 73.0401 66.4307 66.2295 66.4307 57.6014C66.4307 48.4649 68.7949 41.3705 73.5111 36.3096C78.2256 31.2626 84.4251 28.7312 92.1184 28.7312C95.5306 28.7312 98.6173 29.2448 101.38 30.2702V43.2003C100.745 42.2393 99.9717 41.3949 99.0577 40.6689C96.9999 39.0202 94.4948 38.202 91.5561 38.202C87.4927 38.202 84.1831 39.6592 81.6517 42.5857C79.1204 45.5 77.8565 50.2285 77.8565 56.771C77.8565 63.7121 79.0961 68.6564 81.5996 71.5969C84.0926 74.5478 87.3394 76.0189 91.3262 76.0189C94.2789 76.0189 96.8084 75.0857 98.9306 73.2072C99.8621 72.3873 100.679 71.3584 101.38 70.1206V83.7452Z" fill="#8198B2"/>
</svg>
