<?xml version="1.0" standalone="no"?>
<!DOCTYPE svg PUBLIC "-//W3C//DTD SVG 20010904//EN"
 "http://www.w3.org/TR/2001/REC-SVG-20010904/DTD/svg10.dtd">
<svg version="1.0" xmlns="http://www.w3.org/2000/svg"
 width="700.000000pt" height="700.000000pt" viewBox="0 0 700.000000 700.000000"
 preserveAspectRatio="xMidYMid meet">
<metadata>
Created by potrace 1.14, written by Peter Selinger 2001-2017
</metadata>
<g transform="translate(0.000000,700.000000) scale(0.100000,-0.100000)"
fill="#000000" stroke="none">
<path d="M3175 6968 c-810 -213 -1547 -727 -2025 -1413 -327 -470 -528 -989
-607 -1575 -22 -169 -25 -656 -5 -820 69 -543 237 -1026 510 -1461 575 -919
1520 -1521 2613 -1665 214 -28 828 -29 855 -1 3 3 -36 242 -87 531 l-93 526
-145 0 c-779 1 -1532 271 -2111 758 -52 44 -154 140 -225 213 -430 441 -698
975 -792 1579 -23 146 -26 624 -5 765 79 526 277 984 603 1397 105 133 345
372 478 477 317 251 701 454 1062 561 57 17 105 32 107 35 6 6 -8 114 -16 119
-4 2 -56 -10 -117 -26z"/>
<path d="M3840 6653 c-444 -20 -855 -145 -1218 -369 -683 -423 -1121 -1125
-1203 -1928 -17 -169 -7 -496 20 -655 45 -265 114 -478 230 -716 254 -518 651
-915 1173 -1170 391 -192 853 -281 1278 -246 622 52 1157 298 1596 736 382
382 622 848 715 1390 27 153 37 512 20 677 -50 486 -247 962 -558 1348 -410
510 -1046 857 -1683 919 -129 12 -284 18 -370 14z m397 -198 c699 -97 1311
-533 1632 -1165 314 -617 316 -1343 6 -1955 -327 -647 -917 -1072 -1640 -1180
-148 -23 -451 -23 -600 -1 -824 124 -1499 687 -1760 1469 -73 219 -106 429
-107 677 0 257 31 453 108 689 179 547 588 1013 1109 1266 393 191 819 259
1252 200z"/>
<path d="M4128 5649 c-119 -14 -260 -54 -364 -103 -344 -163 -558 -463 -635
-892 -29 -159 -32 -488 -6 -639 91 -527 412 -877 899 -981 59 -13 129 -18 243
-18 172 -1 262 11 388 51 l77 24 0 316 0 316 -31 -46 c-114 -172 -338 -257
-559 -213 -111 23 -198 67 -279 142 -161 149 -224 358 -224 739 0 217 13 323
57 453 38 110 74 170 151 248 226 227 611 231 824 9 l61 -63 0 298 0 298 -32
11 c-173 54 -374 72 -570 50z"/>
</g>
</svg>
