<svg width="431" height="115" viewBox="0 0 431 115" fill="none" xmlns="http://www.w3.org/2000/svg">
<path d="M138.677 46.21L141.76 47.1875C141.287 48.9062 140.499 50.1846 139.396 51.0225C138.301 51.8532 136.908 52.2686 135.218 52.2686C133.127 52.2686 131.408 51.556 130.062 50.1309C128.715 48.6986 128.042 46.7435 128.042 44.2656C128.042 41.6445 128.719 39.6107 130.072 38.1641C131.426 36.7103 133.205 35.9834 135.411 35.9834C137.338 35.9834 138.902 36.5527 140.105 37.6914C140.822 38.3646 141.359 39.3314 141.717 40.5918L138.569 41.3438C138.383 40.5273 137.993 39.8828 137.398 39.4102C136.811 38.9375 136.095 38.7012 135.25 38.7012C134.083 38.7012 133.134 39.1201 132.403 39.958C131.68 40.7959 131.318 42.153 131.318 44.0293C131.318 46.0202 131.676 47.4382 132.393 48.2832C133.109 49.1283 134.04 49.5508 135.186 49.5508C136.031 49.5508 136.757 49.2822 137.366 48.7451C137.975 48.208 138.412 47.363 138.677 46.21ZM143.854 44.2227C143.854 42.6185 144.094 41.2721 144.574 40.1836C144.932 39.3815 145.419 38.6618 146.035 38.0244C146.658 37.387 147.339 36.9144 148.076 36.6064C149.057 36.1911 150.189 35.9834 151.471 35.9834C153.791 35.9834 155.646 36.7031 157.035 38.1426C158.432 39.582 159.13 41.5837 159.13 44.1475C159.13 46.6898 158.439 48.6807 157.057 50.1201C155.674 51.5524 153.827 52.2686 151.514 52.2686C149.172 52.2686 147.31 51.556 145.928 50.1309C144.546 48.6986 143.854 46.7292 143.854 44.2227ZM147.131 44.1152C147.131 45.8984 147.543 47.252 148.366 48.1758C149.19 49.0924 150.235 49.5508 151.503 49.5508C152.771 49.5508 153.809 49.096 154.618 48.1865C155.435 47.2699 155.843 45.8984 155.843 44.0723C155.843 42.2676 155.445 40.9212 154.65 40.0332C153.863 39.1452 152.813 38.7012 151.503 38.7012C150.192 38.7012 149.136 39.1523 148.334 40.0547C147.532 40.9499 147.131 42.3034 147.131 44.1152ZM161.633 52V36.252H168.325C170.008 36.252 171.229 36.3952 171.988 36.6816C172.755 36.9609 173.367 37.4622 173.825 38.1855C174.284 38.9089 174.513 39.736 174.513 40.667C174.513 41.8486 174.165 42.8262 173.471 43.5996C172.776 44.3659 171.738 44.8493 170.355 45.0498C171.043 45.4508 171.609 45.8913 172.053 46.3711C172.504 46.8509 173.109 47.7031 173.868 48.9277L175.791 52H171.988L169.689 48.5732C168.873 47.3486 168.314 46.5788 168.014 46.2637C167.713 45.9414 167.394 45.723 167.058 45.6084C166.721 45.4867 166.188 45.4258 165.457 45.4258H164.812V52H161.633ZM164.812 42.9121H167.165C168.69 42.9121 169.643 42.8477 170.022 42.7188C170.402 42.5898 170.699 42.3678 170.914 42.0527C171.129 41.7376 171.236 41.3438 171.236 40.8711C171.236 40.3411 171.093 39.915 170.807 39.5928C170.527 39.2633 170.13 39.0557 169.614 38.9697C169.356 38.9339 168.583 38.916 167.294 38.916H164.812V42.9121ZM176.876 44.2227C176.876 42.6185 177.116 41.2721 177.596 40.1836C177.954 39.3815 178.441 38.6618 179.057 38.0244C179.68 37.387 180.36 36.9144 181.098 36.6064C182.079 36.1911 183.21 35.9834 184.492 35.9834C186.812 35.9834 188.667 36.7031 190.057 38.1426C191.453 39.582 192.151 41.5837 192.151 44.1475C192.151 46.6898 191.46 48.6807 190.078 50.1201C188.696 51.5524 186.848 52.2686 184.535 52.2686C182.193 52.2686 180.331 51.556 178.949 50.1309C177.567 48.6986 176.876 46.7292 176.876 44.2227ZM180.152 44.1152C180.152 45.8984 180.564 47.252 181.388 48.1758C182.211 49.0924 183.257 49.5508 184.524 49.5508C185.792 49.5508 186.83 49.096 187.64 48.1865C188.456 47.2699 188.864 45.8984 188.864 44.0723C188.864 42.2676 188.467 40.9212 187.672 40.0332C186.884 39.1452 185.835 38.7012 184.524 38.7012C183.214 38.7012 182.158 39.1523 181.355 40.0547C180.553 40.9499 180.152 42.3034 180.152 44.1152ZM194.622 36.252H197.802V44.7812C197.802 46.1348 197.841 47.012 197.92 47.4131C198.056 48.0576 198.378 48.5768 198.887 48.9707C199.402 49.3574 200.104 49.5508 200.992 49.5508C201.895 49.5508 202.575 49.3682 203.033 49.0029C203.492 48.6305 203.767 48.1758 203.86 47.6387C203.953 47.1016 204 46.21 204 44.9639V36.252H207.18V44.5234C207.18 46.4141 207.094 47.7497 206.922 48.5303C206.75 49.3109 206.431 49.9697 205.966 50.5068C205.507 51.0439 204.892 51.4736 204.118 51.7959C203.345 52.111 202.335 52.2686 201.089 52.2686C199.585 52.2686 198.443 52.0967 197.662 51.7529C196.889 51.402 196.276 50.9508 195.825 50.3994C195.374 49.8408 195.077 49.2572 194.934 48.6484C194.726 47.7461 194.622 46.4141 194.622 44.6523V36.252ZM209.736 46.876L212.83 46.5752C213.016 47.6136 213.392 48.3763 213.958 48.8633C214.531 49.3503 215.301 49.5938 216.268 49.5938C217.292 49.5938 218.062 49.3789 218.577 48.9492C219.1 48.5124 219.361 48.0039 219.361 47.4238C219.361 47.0514 219.25 46.7363 219.028 46.4785C218.813 46.2135 218.434 45.9844 217.89 45.791C217.517 45.6621 216.669 45.4329 215.344 45.1035C213.639 44.681 212.443 44.1618 211.756 43.5459C210.789 42.6794 210.306 41.623 210.306 40.377C210.306 39.5749 210.531 38.8265 210.982 38.1318C211.441 37.43 212.096 36.8965 212.948 36.5312C213.808 36.166 214.842 35.9834 216.053 35.9834C218.029 35.9834 219.515 36.4167 220.511 37.2832C221.513 38.1497 222.04 39.3063 222.09 40.7529L218.91 40.8926C218.774 40.0833 218.48 39.5033 218.029 39.1523C217.585 38.7943 216.916 38.6152 216.021 38.6152C215.097 38.6152 214.373 38.805 213.851 39.1846C213.514 39.4281 213.346 39.7539 213.346 40.1621C213.346 40.5345 213.503 40.8532 213.818 41.1182C214.219 41.4548 215.193 41.8057 216.74 42.1709C218.287 42.5361 219.429 42.9157 220.167 43.3096C220.912 43.6963 221.492 44.2298 221.907 44.9102C222.33 45.5833 222.541 46.4176 222.541 47.4131C222.541 48.3154 222.29 49.1605 221.789 49.9482C221.288 50.736 220.579 51.3232 219.662 51.71C218.745 52.0895 217.603 52.2793 216.235 52.2793C214.244 52.2793 212.715 51.821 211.648 50.9043C210.581 49.9805 209.944 48.6377 209.736 46.876ZM231.425 52V36.3809H234.604V49.3467H242.511V52H231.425ZM244.691 52V36.252H247.871V52H244.691ZM250.933 52V36.252H261.729V38.916H254.112V42.6436H260.687V45.3076H254.112V52H250.933ZM264.36 52V36.252H276.037V38.916H267.54V42.4072H275.446V45.0605H267.54V49.3467H276.338V52H264.36ZM278.229 46.876L281.322 46.5752C281.508 47.6136 281.884 48.3763 282.45 48.8633C283.023 49.3503 283.793 49.5938 284.76 49.5938C285.784 49.5938 286.554 49.3789 287.069 48.9492C287.592 48.5124 287.854 48.0039 287.854 47.4238C287.854 47.0514 287.743 46.7363 287.521 46.4785C287.306 46.2135 286.926 45.9844 286.382 45.791C286.009 45.6621 285.161 45.4329 283.836 45.1035C282.132 44.681 280.936 44.1618 280.248 43.5459C279.281 42.6794 278.798 41.623 278.798 40.377C278.798 39.5749 279.023 38.8265 279.475 38.1318C279.933 37.43 280.588 36.8965 281.44 36.5312C282.3 36.166 283.335 35.9834 284.545 35.9834C286.521 35.9834 288.007 36.4167 289.003 37.2832C290.006 38.1497 290.532 39.3063 290.582 40.7529L287.402 40.8926C287.266 40.0833 286.973 39.5033 286.521 39.1523C286.077 38.7943 285.408 38.6152 284.513 38.6152C283.589 38.6152 282.866 38.805 282.343 39.1846C282.006 39.4281 281.838 39.7539 281.838 40.1621C281.838 40.5345 281.995 40.8532 282.311 41.1182C282.712 41.4548 283.686 41.8057 285.232 42.1709C286.779 42.5361 287.922 42.9157 288.659 43.3096C289.404 43.6963 289.984 44.2298 290.399 44.9102C290.822 45.5833 291.033 46.4176 291.033 47.4131C291.033 48.3154 290.783 49.1605 290.281 49.9482C289.78 50.736 289.071 51.3232 288.154 51.71C287.238 52.0895 286.095 52.2793 284.728 52.2793C282.737 52.2793 281.208 51.821 280.141 50.9043C279.074 49.9805 278.436 48.6377 278.229 46.876ZM303.784 46.21L306.867 47.1875C306.395 48.9062 305.607 50.1846 304.504 51.0225C303.408 51.8532 302.015 52.2686 300.325 52.2686C298.234 52.2686 296.515 51.556 295.169 50.1309C293.823 48.6986 293.149 46.7435 293.149 44.2656C293.149 41.6445 293.826 39.6107 295.18 38.1641C296.533 36.7103 298.313 35.9834 300.519 35.9834C302.445 35.9834 304.01 36.5527 305.213 37.6914C305.929 38.3646 306.466 39.3314 306.824 40.5918L303.677 41.3438C303.491 40.5273 303.1 39.8828 302.506 39.4102C301.919 38.9375 301.202 38.7012 300.357 38.7012C299.19 38.7012 298.241 39.1201 297.511 39.958C296.787 40.7959 296.426 42.153 296.426 44.0293C296.426 46.0202 296.784 47.4382 297.5 48.2832C298.216 49.1283 299.147 49.5508 300.293 49.5508C301.138 49.5508 301.865 49.2822 302.474 48.7451C303.082 48.208 303.519 47.363 303.784 46.21ZM309.51 52V36.252H312.689V52H309.51ZM315.729 52V36.252H327.406V38.916H318.909V42.4072H326.815V45.0605H318.909V49.3467H327.707V52H315.729ZM330.436 52V36.252H333.529L339.975 46.7686V36.252H342.929V52H339.738L333.39 41.7305V52H330.436ZM356.378 46.21L359.461 47.1875C358.988 48.9062 358.201 50.1846 357.098 51.0225C356.002 51.8532 354.609 52.2686 352.919 52.2686C350.828 52.2686 349.109 51.556 347.763 50.1309C346.416 48.6986 345.743 46.7435 345.743 44.2656C345.743 41.6445 346.42 39.6107 347.773 38.1641C349.127 36.7103 350.907 35.9834 353.112 35.9834C355.039 35.9834 356.604 36.5527 357.807 37.6914C358.523 38.3646 359.06 39.3314 359.418 40.5918L356.271 41.3438C356.084 40.5273 355.694 39.8828 355.1 39.4102C354.512 38.9375 353.796 38.7012 352.951 38.7012C351.784 38.7012 350.835 39.1201 350.104 39.958C349.381 40.7959 349.02 42.153 349.02 44.0293C349.02 46.0202 349.378 47.4382 350.094 48.2832C350.81 49.1283 351.741 49.5508 352.887 49.5508C353.732 49.5508 354.459 49.2822 355.067 48.7451C355.676 48.208 356.113 47.363 356.378 46.21ZM362.2 52V36.252H373.877V38.916H365.38V42.4072H373.286V45.0605H365.38V49.3467H374.178V52H362.2ZM376.068 46.876L379.162 46.5752C379.348 47.6136 379.724 48.3763 380.29 48.8633C380.863 49.3503 381.633 49.5938 382.6 49.5938C383.624 49.5938 384.394 49.3789 384.909 48.9492C385.432 48.5124 385.693 48.0039 385.693 47.4238C385.693 47.0514 385.582 46.7363 385.36 46.4785C385.146 46.2135 384.766 45.9844 384.222 45.791C383.849 45.6621 383.001 45.4329 381.676 45.1035C379.971 44.681 378.775 44.1618 378.088 43.5459C377.121 42.6794 376.638 41.623 376.638 40.377C376.638 39.5749 376.863 38.8265 377.314 38.1318C377.773 37.43 378.428 36.8965 379.28 36.5312C380.14 36.166 381.174 35.9834 382.385 35.9834C384.361 35.9834 385.847 36.4167 386.843 37.2832C387.845 38.1497 388.372 39.3063 388.422 40.7529L385.242 40.8926C385.106 40.0833 384.812 39.5033 384.361 39.1523C383.917 38.7943 383.248 38.6152 382.353 38.6152C381.429 38.6152 380.705 38.805 380.183 39.1846C379.846 39.4281 379.678 39.7539 379.678 40.1621C379.678 40.5345 379.835 40.8532 380.15 41.1182C380.551 41.4548 381.525 41.8057 383.072 42.1709C384.619 42.5361 385.761 42.9157 386.499 43.3096C387.244 43.6963 387.824 44.2298 388.239 44.9102C388.662 45.5833 388.873 46.4176 388.873 47.4131C388.873 48.3154 388.622 49.1605 388.121 49.9482C387.62 50.736 386.911 51.3232 385.994 51.71C385.077 52.0895 383.935 52.2793 382.567 52.2793C380.576 52.2793 379.048 51.821 377.98 50.9043C376.913 49.9805 376.276 48.6377 376.068 46.876Z" fill="#20026F"/>
<path d="M128.389 79V66.1152H133.249C134.104 66.1152 134.758 66.1562 135.209 66.2383C135.842 66.3438 136.372 66.5459 136.8 66.8447C137.228 67.1377 137.57 67.5508 137.828 68.084C138.092 68.6172 138.224 69.2031 138.224 69.8418C138.224 70.9375 137.875 71.8662 137.178 72.6279C136.48 73.3838 135.221 73.7617 133.398 73.7617H130.094V79H128.389ZM130.094 72.2412H133.425C134.526 72.2412 135.309 72.0361 135.771 71.626C136.234 71.2158 136.466 70.6387 136.466 69.8945C136.466 69.3555 136.328 68.8955 136.053 68.5146C135.783 68.1279 135.426 67.873 134.98 67.75C134.693 67.6738 134.163 67.6357 133.39 67.6357H130.094V72.2412ZM140.175 79V69.666H141.599V71.0811C141.962 70.4189 142.296 69.9824 142.601 69.7715C142.911 69.5605 143.251 69.4551 143.62 69.4551C144.153 69.4551 144.695 69.625 145.246 69.9648L144.701 71.4326C144.314 71.2041 143.928 71.0898 143.541 71.0898C143.195 71.0898 142.885 71.1953 142.609 71.4062C142.334 71.6113 142.138 71.8984 142.021 72.2676C141.845 72.8301 141.757 73.4453 141.757 74.1133V79H140.175ZM146.195 67.9346V66.1152H147.777V67.9346H146.195ZM146.195 79V69.666H147.777V79H146.195ZM152.787 79L149.236 69.666H150.906L152.91 75.2559C153.127 75.8594 153.326 76.4863 153.508 77.1367C153.648 76.6445 153.845 76.0527 154.097 75.3613L156.171 69.666H157.797L154.264 79H152.787ZM165.285 77.8486C164.699 78.3467 164.134 78.6982 163.589 78.9033C163.05 79.1084 162.47 79.2109 161.849 79.2109C160.823 79.2109 160.035 78.9619 159.484 78.4639C158.934 77.96 158.658 77.3184 158.658 76.5391C158.658 76.082 158.761 75.666 158.966 75.291C159.177 74.9102 159.449 74.6055 159.783 74.377C160.123 74.1484 160.504 73.9756 160.926 73.8584C161.236 73.7764 161.705 73.6973 162.332 73.6211C163.609 73.4688 164.55 73.2871 165.153 73.0762C165.159 72.8594 165.162 72.7217 165.162 72.6631C165.162 72.0186 165.013 71.5645 164.714 71.3008C164.31 70.9434 163.709 70.7646 162.912 70.7646C162.168 70.7646 161.617 70.8965 161.26 71.1602C160.908 71.418 160.647 71.8779 160.478 72.54L158.931 72.3291C159.071 71.667 159.303 71.1338 159.625 70.7295C159.947 70.3193 160.413 70.0059 161.022 69.7891C161.632 69.5664 162.338 69.4551 163.141 69.4551C163.938 69.4551 164.585 69.5488 165.083 69.7363C165.581 69.9238 165.947 70.1611 166.182 70.4482C166.416 70.7295 166.58 71.0869 166.674 71.5205C166.727 71.79 166.753 72.2764 166.753 72.9795V75.0889C166.753 76.5596 166.785 77.4912 166.85 77.8838C166.92 78.2705 167.055 78.6426 167.254 79H165.602C165.438 78.6719 165.332 78.2881 165.285 77.8486ZM165.153 74.3154C164.579 74.5498 163.718 74.749 162.569 74.9131C161.919 75.0068 161.459 75.1123 161.189 75.2295C160.92 75.3467 160.712 75.5195 160.565 75.748C160.419 75.9707 160.346 76.2197 160.346 76.4951C160.346 76.917 160.504 77.2686 160.82 77.5498C161.143 77.8311 161.611 77.9717 162.227 77.9717C162.836 77.9717 163.378 77.8398 163.853 77.5762C164.327 77.3066 164.676 76.9404 164.898 76.4775C165.068 76.1201 165.153 75.5928 165.153 74.8955V74.3154ZM172.668 77.585L172.896 78.9824C172.451 79.0762 172.053 79.123 171.701 79.123C171.127 79.123 170.682 79.0322 170.365 78.8506C170.049 78.6689 169.826 78.4316 169.697 78.1387C169.568 77.8398 169.504 77.2158 169.504 76.2666V70.8965H168.344V69.666H169.504V67.3545L171.077 66.4053V69.666H172.668V70.8965H171.077V76.3545C171.077 76.8057 171.104 77.0957 171.156 77.2246C171.215 77.3535 171.306 77.4561 171.429 77.5322C171.558 77.6084 171.739 77.6465 171.974 77.6465C172.149 77.6465 172.381 77.626 172.668 77.585ZM180.613 75.9941L182.248 76.1963C181.99 77.1514 181.513 77.8926 180.815 78.4199C180.118 78.9473 179.228 79.2109 178.144 79.2109C176.778 79.2109 175.694 78.792 174.892 77.9541C174.095 77.1104 173.696 75.9297 173.696 74.4121C173.696 72.8418 174.101 71.623 174.909 70.7559C175.718 69.8887 176.767 69.4551 178.056 69.4551C179.304 69.4551 180.323 69.8799 181.114 70.7295C181.905 71.5791 182.301 72.7744 182.301 74.3154C182.301 74.4092 182.298 74.5498 182.292 74.7373H175.331C175.39 75.7627 175.68 76.5479 176.201 77.0928C176.723 77.6377 177.373 77.9102 178.152 77.9102C178.732 77.9102 179.228 77.7578 179.638 77.4531C180.048 77.1484 180.373 76.6621 180.613 75.9941ZM175.419 73.4365H180.631C180.561 72.6514 180.361 72.0625 180.033 71.6699C179.529 71.0605 178.876 70.7559 178.073 70.7559C177.347 70.7559 176.734 70.999 176.236 71.4854C175.744 71.9717 175.472 72.6221 175.419 73.4365ZM189.385 79V66.1152H191.09V77.4795H197.436V79H189.385ZM199.281 67.9346V66.1152H200.863V67.9346H199.281ZM199.281 79V69.666H200.863V79H199.281ZM203.28 79V69.666H204.695V70.9756C204.988 70.5186 205.378 70.1523 205.864 69.877C206.351 69.5957 206.904 69.4551 207.525 69.4551C208.217 69.4551 208.782 69.5986 209.222 69.8857C209.667 70.1729 209.98 70.5742 210.162 71.0898C210.9 70 211.861 69.4551 213.045 69.4551C213.971 69.4551 214.683 69.7129 215.181 70.2285C215.679 70.7383 215.928 71.5264 215.928 72.5928V79H214.354V73.1201C214.354 72.4873 214.302 72.0332 214.196 71.7578C214.097 71.4766 213.912 71.251 213.643 71.0811C213.373 70.9111 213.057 70.8262 212.693 70.8262C212.037 70.8262 211.492 71.0459 211.059 71.4854C210.625 71.9189 210.408 72.6162 210.408 73.5771V79H208.826V72.9355C208.826 72.2324 208.697 71.7051 208.439 71.3535C208.182 71.002 207.76 70.8262 207.174 70.8262C206.729 70.8262 206.315 70.9434 205.935 71.1777C205.56 71.4121 205.287 71.7549 205.117 72.2061C204.947 72.6572 204.862 73.3076 204.862 74.1572V79H203.28ZM218.283 67.9346V66.1152H219.865V67.9346H218.283ZM218.283 79V69.666H219.865V79H218.283ZM225.736 77.585L225.965 78.9824C225.52 79.0762 225.121 79.123 224.77 79.123C224.195 79.123 223.75 79.0322 223.434 78.8506C223.117 78.6689 222.895 78.4316 222.766 78.1387C222.637 77.8398 222.572 77.2158 222.572 76.2666V70.8965H221.412V69.666H222.572V67.3545L224.146 66.4053V69.666H225.736V70.8965H224.146V76.3545C224.146 76.8057 224.172 77.0957 224.225 77.2246C224.283 77.3535 224.374 77.4561 224.497 77.5322C224.626 77.6084 224.808 77.6465 225.042 77.6465C225.218 77.6465 225.449 77.626 225.736 77.585ZM233.682 75.9941L235.316 76.1963C235.059 77.1514 234.581 77.8926 233.884 78.4199C233.187 78.9473 232.296 79.2109 231.212 79.2109C229.847 79.2109 228.763 78.792 227.96 77.9541C227.163 77.1104 226.765 75.9297 226.765 74.4121C226.765 72.8418 227.169 71.623 227.978 70.7559C228.786 69.8887 229.835 69.4551 231.124 69.4551C232.372 69.4551 233.392 69.8799 234.183 70.7295C234.974 71.5791 235.369 72.7744 235.369 74.3154C235.369 74.4092 235.366 74.5498 235.36 74.7373H228.399C228.458 75.7627 228.748 76.5479 229.27 77.0928C229.791 77.6377 230.441 77.9102 231.221 77.9102C231.801 77.9102 232.296 77.7578 232.706 77.4531C233.116 77.1484 233.441 76.6621 233.682 75.9941ZM228.487 73.4365H233.699C233.629 72.6514 233.43 72.0625 233.102 71.6699C232.598 71.0605 231.944 70.7559 231.142 70.7559C230.415 70.7559 229.803 70.999 229.305 71.4854C228.812 71.9717 228.54 72.6221 228.487 73.4365ZM243.367 79V77.8223C242.775 78.748 241.905 79.2109 240.757 79.2109C240.013 79.2109 239.327 79.0059 238.7 78.5957C238.079 78.1855 237.596 77.6143 237.25 76.8818C236.91 76.1436 236.74 75.2969 236.74 74.3418C236.74 73.4102 236.896 72.5664 237.206 71.8105C237.517 71.0488 237.982 70.4658 238.604 70.0615C239.225 69.6572 239.919 69.4551 240.687 69.4551C241.249 69.4551 241.75 69.5752 242.189 69.8154C242.629 70.0498 242.986 70.3574 243.262 70.7383V66.1152H244.835V79H243.367ZM238.366 74.3418C238.366 75.5371 238.618 76.4307 239.122 77.0225C239.626 77.6143 240.221 77.9102 240.906 77.9102C241.598 77.9102 242.184 77.6289 242.664 77.0664C243.15 76.498 243.394 75.6338 243.394 74.4736C243.394 73.1963 243.147 72.2588 242.655 71.6611C242.163 71.0635 241.557 70.7646 240.836 70.7646C240.133 70.7646 239.544 71.0518 239.069 71.626C238.601 72.2002 238.366 73.1055 238.366 74.3418Z" fill="#20026F"/>
<path fill-rule="evenodd" clip-rule="evenodd" d="M64.6604 5.65942C87.603 5.65942 106.208 24.3963 106.208 47.5005C106.208 70.6059 87.603 89.3428 64.6604 89.3428C41.7178 89.3428 23.113 70.6059 23.113 47.5005C23.113 24.3963 41.7178 5.65942 64.6604 5.65942Z" fill="#E77600"/>
<path fill-rule="evenodd" clip-rule="evenodd" d="M64.6603 8.59448C84.3595 8.59448 100.336 24.5712 100.336 44.2704C100.336 63.9696 84.3595 79.9463 64.6603 79.9463C44.961 79.9463 28.9843 63.9696 28.9843 44.2704C28.9843 24.5712 44.961 8.59448 64.6603 8.59448Z" fill="white"/>
<path fill-rule="evenodd" clip-rule="evenodd" d="M74.321 114.525C72.1094 114.772 69.8604 114.904 67.5807 114.904C34.9506 114.904 8.48828 88.8384 8.48828 56.6955C8.48828 29.108 27.9807 5.99851 54.1347 0.000244141L54.5017 2.08109C32.8577 7.8965 17.0186 26.5426 17.0186 48.643C17.0186 75.3923 40.2228 97.0843 68.8353 97.0843C69.6402 97.0843 70.441 97.0643 71.2378 97.0309L74.321 114.525Z" fill="#8198B2"/>
<path fill-rule="evenodd" clip-rule="evenodd" d="M77.7246 64.2045C75.4996 65.0947 72.9596 65.5405 70.1046 65.5405C64.5201 65.5405 59.9246 63.6305 56.3289 59.8186C52.7331 55.9972 50.9299 50.7758 50.9299 44.1609C50.9299 37.1562 52.7425 31.7172 56.3583 27.8372C59.9727 23.9678 64.7257 22.0271 70.6238 22.0271C73.2399 22.0271 75.6064 22.4208 77.7246 23.207V33.12C77.2374 32.3833 76.6447 31.7359 75.944 31.1793C74.3664 29.9153 72.4457 29.288 70.1927 29.288C67.0775 29.288 64.5401 30.4052 62.5994 32.6488C60.6587 34.8832 59.6897 38.5083 59.6897 43.5242C59.6897 48.8458 60.6401 52.6364 62.5594 54.8907C64.4708 57.1531 66.96 58.281 70.0165 58.281C72.2802 58.281 74.2195 57.5655 75.8466 56.1254C76.5607 55.4967 77.1867 54.7079 77.7246 53.7589V64.2045Z" fill="#8198B2"/>
</svg>
