<svg width="40" height="40" viewBox="0 0 40 40" fill="none" xmlns="http://www.w3.org/2000/svg">
<path d="M20 0C16.0444 0 12.1776 1.17298 8.8886 3.37061C5.59962 5.56823 3.03617 8.69181 1.52242 12.3463C0.00866566 16.0009 -0.387401 20.0222 0.384303 23.9018C1.15601 27.7814 3.06082 31.3451 5.85787 34.1421C8.65492 36.9392 12.2186 38.844 16.0982 39.6157C19.9778 40.3874 23.9992 39.9913 27.6537 38.4776C31.3082 36.9638 34.4318 34.4004 36.6294 31.1114C38.827 27.8224 40 23.9556 40 20C40 14.6957 37.8929 9.60859 34.1421 5.85786C30.3914 2.10714 25.3043 0 20 0V0ZM25.28 21.288H22.4V31.752H16.656V21.24H12.8V16.44H16.624V12.648C16.624 11.8914 16.7737 11.1422 17.0644 10.4436C17.3552 9.7451 17.7813 9.11099 18.3182 8.57783C18.855 8.04466 19.4921 7.62299 20.1926 7.33709C20.8932 7.05119 21.6434 6.90672 22.4 6.912H26.256V11.712H24.336C23.288 11.712 22.432 11.616 22.432 12.672V16.488H27.232L25.28 21.288Z" fill="#D6740E"/>
</svg>
