<svg width="40" height="40" viewBox="0 0 40 40" fill="none" xmlns="http://www.w3.org/2000/svg">
<path fill-rule="evenodd" clip-rule="evenodd" d="M20 0C16.0444 0 12.1776 1.17298 8.8886 3.37061C5.59962 5.56823 3.03617 8.69181 1.52242 12.3463C0.00866566 16.0009 -0.387401 20.0222 0.384303 23.9018C1.15601 27.7814 3.06082 31.3451 5.85787 34.1421C8.65492 36.9392 12.2186 38.844 16.0982 39.6157C19.9778 40.3874 23.9992 39.9913 27.6537 38.4776C31.3082 36.9638 34.4318 34.4004 36.6294 31.1114C38.827 27.8224 40 23.9556 40 20C40 14.6957 37.8929 9.60859 34.1421 5.85786C30.3914 2.10714 25.3043 0 20 0V0ZM15.6 9.4C16.744 9.344 17.104 9.336 20 9.336C22.896 9.336 23.256 9.336 24.392 9.4C25.278 9.41581 26.1547 9.58358 26.984 9.896C27.6939 10.168 28.3386 10.5863 28.8761 11.1239C29.4137 11.6614 29.832 12.3061 30.104 13.016C30.4172 13.8423 30.585 14.7165 30.6 15.6C30.656 16.736 30.664 17.104 30.664 20C30.664 22.896 30.664 23.256 30.6 24.4C30.5842 25.2834 30.4164 26.1575 30.104 26.984C29.8286 27.6919 29.409 28.3348 28.8719 28.8719C28.3348 29.409 27.6919 29.8286 26.984 30.104C26.1577 30.4172 25.2835 30.585 24.4 30.6C23.256 30.656 22.896 30.664 20 30.664C17.104 30.664 16.736 30.664 15.6 30.6C14.7165 30.585 13.8423 30.4172 13.016 30.104C12.3061 29.832 11.6614 29.4137 11.1239 28.8761C10.5863 28.3386 10.168 27.6939 9.89601 26.984C9.58357 26.1575 9.41578 25.2834 9.40001 24.4C9.34401 23.256 9.33601 22.896 9.33601 20C9.33601 17.104 9.33601 16.736 9.40001 15.6C9.41498 14.7165 9.58279 13.8423 9.89601 13.016C10.168 12.3061 10.5863 11.6614 11.1239 11.1239C11.6614 10.5863 12.3061 10.168 13.016 9.896C13.8425 9.58356 14.7166 9.41577 15.6 9.4V9.4Z" fill="#D6740E"/>
<path fill-rule="evenodd" clip-rule="evenodd" d="M19.0476 11.2559H19.9996C22.8476 11.2559 23.1996 11.2559 24.3116 11.3199C24.9868 11.3251 25.6558 11.4497 26.2876 11.6879C26.7503 11.8606 27.1704 12.1307 27.5196 12.4799C27.8688 12.8291 28.1389 13.2492 28.3116 13.7119C28.5498 14.3437 28.6744 15.0127 28.6796 15.6879C28.7356 16.8159 28.7436 17.1519 28.7436 19.9999C28.7436 22.8479 28.7436 23.1999 28.6796 24.3039C28.6742 24.9816 28.5496 25.6532 28.3116 26.2879C28.1378 26.7495 27.8647 27.1674 27.5116 27.5119C27.1673 27.8689 26.7459 28.1425 26.2796 28.3119C25.647 28.547 24.9785 28.6715 24.3036 28.6799C23.1756 28.7279 22.8396 28.7359 19.9916 28.7359C17.1436 28.7359 16.7916 28.7359 15.6796 28.6799C15.0048 28.6706 14.3365 28.5461 13.7036 28.3119C13.2383 28.1408 12.8172 27.8674 12.4716 27.5119C12.1185 27.1674 11.8454 26.7495 11.6716 26.2879C11.4337 25.6532 11.3091 24.9816 11.3036 24.3039C11.2476 23.1839 11.2396 22.8399 11.2396 19.9919C11.2396 17.1439 11.2396 16.7919 11.3036 15.6879C11.3091 15.0101 11.4337 14.3385 11.6716 13.7039C11.8454 13.2422 12.1185 12.8243 12.4716 12.4799C12.8172 12.1243 13.2383 11.8509 13.7036 11.6799C14.3365 11.4456 15.0048 11.3212 15.6796 11.3119C16.6636 11.2719 17.0476 11.2559 19.0396 11.2559H19.0476ZM25.6956 13.0239C25.4425 13.0239 25.195 13.0989 24.9845 13.2396C24.774 13.3802 24.6099 13.5801 24.5131 13.814C24.4162 14.0479 24.3908 14.3053 24.4402 14.5536C24.4896 14.8019 24.6115 15.0299 24.7905 15.209C24.9695 15.388 25.1976 15.5099 25.4459 15.5593C25.6942 15.6087 25.9516 15.5833 26.1855 15.4864C26.4193 15.3895 26.6193 15.2255 26.7599 15.015C26.9006 14.8045 26.9756 14.557 26.9756 14.3039C26.9756 13.9644 26.8408 13.6388 26.6007 13.3988C26.3607 13.1587 26.0351 13.0239 25.6956 13.0239ZM14.5196 19.9999C14.5196 18.916 14.841 17.8565 15.4432 16.9553C16.0453 16.0542 16.9012 15.3518 17.9025 14.937C18.9039 14.5222 20.0057 14.4137 21.0687 14.6252C22.1317 14.8366 23.1082 15.3585 23.8746 16.1249C24.641 16.8913 25.1629 17.8677 25.3743 18.9308C25.5858 19.9938 25.4773 21.0956 25.0625 22.097C24.6477 23.0983 23.9453 23.9542 23.0441 24.5563C22.143 25.1585 21.0835 25.4799 19.9996 25.4799C18.5462 25.4799 17.1524 24.9025 16.1247 23.8748C15.097 22.8471 14.5196 21.4532 14.5196 19.9999Z" fill="#D6740E"/>
<path d="M19.9999 16.448C20.7024 16.448 21.3891 16.6564 21.9733 17.0467C22.5574 17.437 23.0127 17.9917 23.2815 18.6408C23.5503 19.2898 23.6207 20.004 23.4836 20.693C23.3466 21.382 23.0083 22.0149 22.5115 22.5117C22.0148 23.0084 21.3819 23.3467 20.6928 23.4838C20.0038 23.6208 19.2896 23.5505 18.6406 23.2817C17.9915 23.0128 17.4368 22.5576 17.0465 21.9734C16.6562 21.3893 16.4479 20.7026 16.4479 20C16.4479 19.058 16.8221 18.1545 17.4882 17.4884C18.1544 16.8223 19.0578 16.448 19.9999 16.448V16.448Z" fill="#D6740E"/>
</svg>
