<svg width="40" height="33" viewBox="0 0 40 33" fill="none" xmlns="http://www.w3.org/2000/svg">
<path d="M40 3.84532C38.4959 4.50337 36.9048 4.94109 35.2758 5.14497C36.9919 4.1261 38.275 2.51355 38.8823 0.612438C37.2754 1.56598 35.5171 2.23741 33.6837 2.59765C32.5596 1.39627 31.1 0.560803 29.4948 0.19982C27.8896 -0.161163 26.2129 -0.0309651 24.6827 0.573492C23.1525 1.17795 21.8394 2.22872 20.9142 3.58923C19.989 4.94975 19.4944 6.5571 19.4948 8.2024C19.4892 8.8305 19.5546 9.45722 19.6897 10.0706C16.4285 9.91 13.238 9.06294 10.3266 7.58485C7.41518 6.10675 4.84848 4.03089 2.79425 1.49295C1.73958 3.29718 1.41323 5.43589 1.88179 7.47256C2.35035 9.50922 3.5785 11.2903 5.31557 12.4523C4.01687 12.419 2.74528 12.0735 1.60832 11.445V11.5328C1.60991 13.4255 2.26334 15.2599 3.45867 16.7275C4.65399 18.195 6.31828 19.2061 8.17155 19.5906C7.46961 19.7749 6.74636 19.8656 6.02063 19.8603C5.49941 19.8699 4.97868 19.8231 4.46755 19.7206C4.99704 21.3484 6.0181 22.772 7.39015 23.7955C8.76221 24.819 10.4178 25.3921 12.129 25.4358C9.22249 27.7071 5.63821 28.9381 1.94948 28.9318C1.29787 28.9362 0.646671 28.8983 0 28.8181C3.75088 31.2314 8.12048 32.5066 12.5806 32.4896C27.6696 32.4896 35.9223 19.9902 35.9223 9.15439C35.9223 8.79049 35.9223 8.44283 35.8899 8.09518C37.5064 6.93966 38.8991 5.49957 40 3.84532V3.84532Z" fill="#D6740E"/>
</svg>
