<svg width="40" height="41" viewBox="0 0 40 41" fill="none" xmlns="http://www.w3.org/2000/svg">
<path d="M20 10.7731C18.2454 10.7722 16.524 11.2514 15.0222 12.1587C13.5204 13.0661 12.2955 14.367 11.48 15.9206C10.6646 17.4742 10.2898 19.2213 10.3961 20.9727C10.5024 22.724 11.0859 24.4129 12.0833 25.8565L11.1667 29.4065L14.8 28.4565C16.0563 29.2718 17.4857 29.7825 18.9743 29.9477C20.4629 30.1129 21.9695 29.9282 23.374 29.4082C24.7786 28.8883 26.0422 28.0474 27.0644 26.9527C28.0865 25.858 28.8388 24.5396 29.2613 23.1028C29.6838 21.6659 29.7649 20.1502 29.4981 18.6764C29.2313 17.2027 28.6239 15.8116 27.7244 14.6141C26.8249 13.4166 25.6581 12.4457 24.3171 11.7789C22.976 11.112 21.4977 10.7676 20 10.7731V10.7731ZM25.65 24.5231C25.4378 24.8739 25.1548 25.1767 24.819 25.412C24.4833 25.6473 24.1022 25.81 23.7 25.8898C23.0938 25.9954 22.4711 25.9554 21.8833 25.7731C21.4667 25.6398 20.9333 25.4565 20.2167 25.1731C18.1993 24.1761 16.4762 22.6712 15.2167 20.8065C14.5873 19.9336 14.2228 18.8978 14.1667 17.8231C14.1685 17.3855 14.2596 16.9528 14.4344 16.5516C14.6092 16.1504 14.8641 15.7891 15.1833 15.4898C15.2804 15.3809 15.3982 15.2924 15.5298 15.2294C15.6615 15.1665 15.8043 15.1304 15.95 15.1231H16.5C16.6833 15.1231 16.9167 15.1231 17.1667 15.6231C17.4167 16.1231 17.9833 17.6231 18.05 17.7565C18.091 17.8364 18.1123 17.925 18.1123 18.0148C18.1123 18.1046 18.091 18.1932 18.05 18.2731C17.9835 18.4491 17.8877 18.6125 17.7667 18.7565L17.3333 19.2565C17.1833 19.4065 17.0333 19.5565 17.2 19.8398C17.6459 20.5956 18.2084 21.2762 18.8667 21.8565C19.552 22.4621 20.3354 22.9468 21.1833 23.2898C21.4667 23.4231 21.65 23.4065 21.8167 23.2065C21.9833 23.0065 22.5333 22.3731 22.7333 22.0731C22.9333 21.7731 23.1167 21.8398 23.3833 21.9398C23.65 22.0398 25.05 22.7231 25.35 22.8731C25.65 23.0231 25.8333 23.0898 25.9 23.2065C25.9667 23.6555 25.897 24.1142 25.7 24.5231H25.65ZM20 0.489807C16.0444 0.489807 12.1776 1.66279 8.8886 3.86041C5.59962 6.05804 3.03617 9.18161 1.52242 12.8361C0.00866572 16.4907 -0.387401 20.512 0.384303 24.3916C1.15601 28.2712 3.06082 31.8349 5.85787 34.6319C8.65492 37.429 12.2186 39.3338 16.0982 40.1055C19.9778 40.8772 23.9992 40.4811 27.6537 38.9674C31.3082 37.4536 34.4318 34.8902 36.6294 31.6012C38.827 28.3122 40 24.4454 40 20.4898C40 15.1855 37.8929 10.0984 34.1421 6.34767C30.3914 2.59694 25.3043 0.489807 20 0.489807V0.489807ZM20 31.9565C18.0794 31.9264 16.1958 31.4226 14.5167 30.4898L8.33334 32.1565L10 26.1565C9.14172 24.6182 8.6461 22.9042 8.55096 21.1453C8.45583 19.3864 8.76368 17.629 9.45105 16.0071C10.1384 14.3852 11.1871 12.9418 12.5172 11.7869C13.8473 10.632 15.4236 9.79613 17.1258 9.34308C18.828 8.89002 20.6113 8.83174 22.3395 9.17267C24.0677 9.51361 25.6952 10.2448 27.0978 11.3104C28.5004 12.3759 29.6412 13.7478 30.433 15.3213C31.2248 16.8948 31.6467 18.6284 31.6667 20.3898C31.6403 23.4666 30.3995 26.4085 28.2144 28.5748C26.0294 30.7412 23.0769 31.9566 20 31.9565V31.9565Z" fill="#D6740E"/>
</svg>
