<svg width="56" height="55" viewBox="0 0 56 55" fill="none" xmlns="http://www.w3.org/2000/svg">
<g clip-path="url(#clip0_100_323)">
<path fill-rule="evenodd" clip-rule="evenodd" d="M16.5416 37.785L20.0387 36.1281C24.1453 34.2719 26.5722 35.3398 30.0051 36.6598C33.9376 38.1746 35.4249 38.6833 37.0566 39.3273C39.9853 40.4869 38.6333 44.3162 35.6999 43.5394C33.917 43.0673 29.2558 41.7175 27.9541 41.4058C26.4874 41.0529 25.8228 42.7854 27.2139 43.2804C29.7485 44.181 33.3166 45.0908 35.221 45.5881C37.1253 46.0877 38.1887 45.2558 39.5316 44.1879C41.6078 42.5379 46.3333 37.5214 46.3333 37.5214C48.2628 35.6904 50.896 37.2121 50.896 39.1715C50.896 39.6985 50.7058 40.2577 50.2635 40.7917C44.9285 47.1923 43.251 49.1379 39.7951 52.7679C38.3674 54.2689 36.7197 55 34.7443 55C33.7314 55 32.6314 54.8075 31.4374 54.4271C27.2551 53.0956 21.8766 51.4181 16.5416 50.7604V37.785ZM14.2499 52.7679H5.08325V34.4346H14.2499V52.7679ZM16.5416 34.7348V30.8069C16.5278 27.2387 16.6837 25.1992 20.7903 24.2504C25.2889 23.2123 30.6789 22.2819 28.5453 18.3448C22.218 6.67561 26.7418 0.0595703 33.5343 0.0595703C40.1962 0.0595703 44.8322 6.4304 38.5233 18.3448C36.4516 22.2589 41.6812 23.1894 46.2783 24.2504C50.401 25.2014 50.5385 27.2548 50.5247 30.8481C50.5247 31.146 50.4995 33.5317 50.5247 34.6637C49.4178 33.9556 47.2201 33.3987 45.5128 34.9067C44.2868 35.9883 44.2112 36.0617 41.4268 38.6398C37.4164 36.7354 31.2151 34.3246 27.1864 32.961C25.133 32.2644 22.5114 32.2552 20.3985 33.1329L16.5416 34.7348Z" fill="#E77600"/>
</g>
<defs>
<clipPath id="clip0_100_323">
<rect width="55" height="55" fill="white" transform="translate(0.5)"/>
</clipPath>
</defs>
</svg>
