<svg width="50" height="50" viewBox="0 0 50 50" fill="none" xmlns="http://www.w3.org/2000/svg">
<path d="M32.9042 5.63962C31.5833 4.31879 32.5417 2.08337 34.3771 2.08337C34.9104 2.08337 35.4437 2.28754 35.85 2.69379L44.6896 11.5313C45.5042 12.3459 45.5042 13.6625 44.6896 14.4771C43.875 15.2917 42.5583 15.2917 41.7438 14.4771L32.9042 5.63962ZM29.1312 25H5.33958L4.4125 24.073C3.97083 23.6292 4.14375 22.8042 4.80417 22.5709C17.6604 19.7438 24.3354 19.9438 33.0812 11.2917L30.1354 8.34587C22.2521 16.25 15.0708 16.0792 3.4125 18.6459C1.26875 19.4084 0 21.3896 0 23.4834C0 24.7438 0.466667 26.0188 1.46875 27.0188L20.8458 46.3959C21.8458 47.3959 23.1187 47.9167 24.3792 47.9167C26.4625 47.9167 28.4521 46.6063 29.2187 44.45C31.7917 32.748 31.0604 25.1 38.975 17.1875L36.0292 14.2417C32.4208 17.85 30.4271 21.3209 29.1312 25ZM50 28.1605C50 31 47.6958 33.3334 44.8542 33.3334C38.6229 33.3334 36.3958 24.5417 46.7542 16.6667C46.6333 21.5938 50 23.5459 50 28.1605ZM45.0604 20.9396C44.3396 21.3334 43.2771 22.3938 43.1146 23.7167C42.875 25.6959 44.9208 26.2792 45.1 23.625C45.1833 22.5063 45.1 21.9709 45.0604 20.9396Z" fill="#E77600"/>
</svg>
