<svg width="56" height="55" viewBox="0 0 56 55" fill="none" xmlns="http://www.w3.org/2000/svg">
<g clip-path="url(#clip0_100_318)">
<path fill-rule="evenodd" clip-rule="evenodd" d="M16.5416 37.7254L20.0387 36.0685C24.1453 34.2123 26.5722 35.2802 30.0051 36.6002C33.9376 38.115 35.4249 38.6238 37.0566 39.2677C39.9853 40.4273 38.6333 44.2567 35.6999 43.4798C33.917 43.0077 29.2558 41.6579 27.9541 41.3463C26.4874 40.9933 25.8228 42.7258 27.2139 43.2208C29.7485 44.1215 33.3166 45.0313 35.221 45.5285C37.1253 46.0281 38.1887 45.1963 39.5316 44.1283C41.6078 42.4783 46.3333 37.4619 46.3333 37.4619C48.2628 35.6308 50.896 37.1525 50.896 39.1119C50.896 39.639 50.7058 40.1981 50.2635 40.7321C44.9285 47.1327 43.251 49.0783 39.7951 52.7083C38.3674 54.2094 36.7197 54.9404 34.7443 54.9404C33.7314 54.9404 32.6314 54.7479 31.4374 54.3675C27.2551 53.036 21.8766 51.3585 16.5416 50.7008V37.7254ZM14.2499 52.7083H5.08325V34.375H14.2499V52.7083ZM48.6249 26.361L33.7291 34.3085V17.7742L48.6249 10.1085V26.361ZM31.4374 17.7192V34.2558L16.6378 26.361V10.0146L31.4374 17.7192ZM23.6274 4.91104L38.5828 12.6981L32.6337 15.7598L17.8501 8.06208L23.6274 4.91104ZM47.4172 8.15375L41.0785 11.4148L26.0497 3.58875L32.6314 0L47.4172 8.15375Z" fill="#E77600"/>
</g>
<defs>
<clipPath id="clip0_100_318">
<rect width="55" height="55" fill="white" transform="translate(0.5)"/>
</clipPath>
</defs>
</svg>
