<svg width="120" height="120" viewBox="0 0 120 120" fill="none" xmlns="http://www.w3.org/2000/svg">
<circle cx="60" cy="60" r="60" fill="#FFF2E4"/>
<path d="M86.25 53C77.5595 53 70.5 60.0525 70.5 68.75C70.5 77.4474 77.5595 84.4999 86.25 84.4999C94.9405 84.4999 102 77.4474 102 68.75C102 60.0525 94.9405 53 86.25 53ZM95 70.5H88V77.5H84.5V70.5H77.5V67H84.5V60H88V67H95V70.5ZM72.1555 86.5754C68.2775 90.3764 64.193 94.3419 60 98.4999C37.495 76.1665 18 59.4855 18 43.172C18 19.4805 48.982 13.961 60 32.868C70.9375 14.101 102 19.4 102 43.172C102 45.783 101.454 48.408 100.52 51.0575C96.6135 47.9005 91.6505 46 86.25 46C73.706 46 63.5 56.206 63.5 68.75C63.5 75.9705 66.895 82.4035 72.1555 86.5754Z" fill="#E77600"/>
</svg>
