<svg width="56" height="55" viewBox="0 0 56 55" fill="none" xmlns="http://www.w3.org/2000/svg">
<g clip-path="url(#clip0_100_313)">
<path d="M28.0001 32.0833C33.0555 32.0833 37.1667 36.1946 37.1667 41.25C37.1667 46.3054 33.0555 50.4167 28.0001 50.4167C22.9447 50.4167 18.8334 46.3054 18.8334 41.25C18.8334 36.1946 22.9447 32.0833 28.0001 32.0833ZM28.0001 27.5C20.4055 27.5 14.2501 33.6577 14.2501 41.25C14.2501 48.8423 20.4055 55 28.0001 55C35.5947 55 41.7501 48.8423 41.7501 41.25C41.7501 33.6577 35.5947 27.5 28.0001 27.5ZM30.8326 42.2858L33.7292 39.5038L29.7509 38.956L28.0001 35.3421L26.2492 38.956L22.2709 39.5038L25.1676 42.2858L24.4617 46.239L28.0001 44.346L31.5384 46.2412L30.8326 42.2858ZM33.9676 21.0696L46.3334 6.875L41.7501 0H14.2501L9.66675 6.875L23.4167 22.9167H32.4872L18.8334 6.875H37.1667L29.4278 15.7415L33.9676 21.0696Z" fill="#E77600"/>
</g>
<defs>
<clipPath id="clip0_100_313">
<rect width="55" height="55" fill="white" transform="translate(0.5)"/>
</clipPath>
</defs>
</svg>
